# xmcd
#
# Track frame offsets:
#	150
#	18112
#	36224
#	54711
#	72223
#	90284
#	107780
#	122730
#	141142
#	159104
#	177066
#	194543
#	212205
#	228292
#
# Disc length: 3273 seconds
#
# Revision: 1
# Processed by: cddbd v1.5.2PL0 Copyright (c) Steve Scherf et al.
# Submitted via: EasyCDDAExtractor 7.0.3.1
#
DISCID=b40cc70e
DTITLE=Various Artist - Hitz Country 2007 Vol. 03
DYEAR=2007
DGENRE=Country
TTITLE0=Brad Paisley - Ticks
TTITLE1=Little Big Town - A Little More You
TTITLE2=Bon Jovi - (You Want To) Make A Memory
TTITLE3=The Wreckers - Tennessee
TTITLE4=Vince Gill - What You Give Away
TTITLE5=Halfway to Hazard - Daisy
TTITLE6=Jack Ingram - Measure of a Man
TTITLE7=Miranda Lambert - Famous in a Small Town
TTITLE8=Jamie O'Neal - God Don't Make Mistakes
TTITLE9=Kenny Rogers and Don Hanley - Calling Me
TTITLE10=John Mellencamp - The Americans
TTITLE11=Catherine Britt - What I Did Last Night
TTITLE12=Darryl Worley - Living in the Here and Now
TTITLE13=Jason Michael Carroll - Livin' Our Love Song
EXTD=
EXTT0=
EXTT1=
EXTT2=
EXTT3=
EXTT4=
EXTT5=
EXTT6=
EXTT7=
EXTT8=
EXTT9=
EXTT10=
EXTT11=
EXTT12=
EXTT13=
PLAYORDER=
